<svg width="15" height="15" viewBox="0 0 15 15" fill="none" xmlns="http://www.w3.org/2000/svg">
<circle cx="7.5" cy="7.5" r="7.5" fill="#F0F0F0"/>
<path d="M6.92456 0.0208883C5.10641 0.170581 3.47623 0.92198 2.19559 2.20464C1.00013 3.39631 0.274633 4.86682 0.0484646 6.56334C-0.0161549 7.05351 -0.0161549 7.95167 0.0484646 8.44184C0.33044 10.5493 1.41429 12.3603 3.12964 13.6018C4.83618 14.8346 7.04499 15.2837 9.14219 14.8229C11.1307 14.3855 12.8901 13.1029 13.9593 11.3183C14.9227 9.70982 15.234 7.7286 14.8228 5.8589C14.2618 3.32 12.3467 1.20669 9.86475 0.384847C8.94539 0.0795908 7.84392 -0.0554256 6.92456 0.0208883ZM4.64232 3.61351C4.71575 3.6458 5.17984 4.08901 6.12269 5.03119L7.49733 6.40191L8.88371 5.01945C10.3523 3.55481 10.3729 3.54014 10.5902 3.58416C10.7254 3.61351 11.3627 4.24457 11.4068 4.39426C11.4773 4.62027 11.4773 4.62027 9.98518 6.11426L8.59879 7.50259L9.98518 8.88798C11.4773 10.3849 11.4773 10.3849 11.4068 10.6109C11.3627 10.7606 10.7254 11.3917 10.5902 11.421C10.3729 11.465 10.3523 11.4504 8.88371 9.98866L7.49733 8.60327L6.10801 9.98866C4.64232 11.4504 4.62176 11.465 4.4044 11.421C4.2781 11.3917 3.63484 10.7635 3.58785 10.6197C3.51148 10.3878 3.50561 10.3966 5.00948 8.88798L6.39586 7.50259L5.00948 6.11426C3.54673 4.64962 3.53204 4.62908 3.5761 4.41187C3.59079 4.34437 3.69359 4.22109 3.92563 3.98334C4.33391 3.56655 4.41909 3.52252 4.64232 3.61351Z" fill="#AB3333"/>
</svg>
